<svg xmlns="http://www.w3.org/2000/svg" width="512" height="512" viewBox="0 0 512 512">
  <defs>
    <linearGradient id="bg" x1="0%" y1="0%" x2="100%" y2="100%">
      <stop offset="0%" style="stop-color:#DC2626"/>
      <stop offset="100%" style="stop-color:#991B1B"/>
    </linearGradient>
  </defs>
  <rect width="512" height="512" rx="100" fill="url(#bg)"/>
  <g transform="translate(96, 96) scale(13.3)">
    <path fill="#ffffff" d="M12 2L2 7v10c0 5.55 3.84 10.74 9 12 5.16-1.26 9-6.45 9-12V7l-10-5zm0 18c-3.86-.96-7-5.23-7-9V8.3l7-3.5 7 3.5V11c0 3.77-3.14 8.04-7 9z"/>
    <path fill="#ffffff" opacity="0.7" d="M12 6l-5 2.5v4.5c0 2.77 1.93 5.37 5 6 3.07-.63 5-3.23 5-6v-4.5L12 6zm3 6c0 1.94-1.29 3.75-3 4.19-1.71-.44-3-2.25-3-4.19V9.4l3-1.5 3 1.5V12z"/>
  </g>
</svg>
